<?xml version="1.0"?>
<svg xmlns="http://www.w3.org/2000/svg" height="512px" viewBox="-80 0 496 496" width="512px"><g><path d="m160 192h16v32h-16zm0 0" data-original="#000000" class="active-path" data-old_color="#000000" fill="#1089FF"/><path d="m132 200c6.617188 0 12-5.382812 12-12s-5.382812-12-12-12-12 5.382812-12 12 5.382812 12 12 12zm0 0" data-original="#000000" class="active-path" data-old_color="#000000" fill="#1089FF"/><path d="m204 200c6.617188 0 12-5.382812 12-12s-5.382812-12-12-12-12 5.382812-12 12 5.382812 12 12 12zm0 0" data-original="#000000" class="active-path" data-old_color="#000000" fill="#1089FF"/><path d="m296.472656 309.921875-55.550781-17.089844c16.132813-13.886719 28.269531-32.246093 34.453125-53.175781 20.457031-1.746094 36.625-18.753906 36.625-39.65625 0-15.542969-9-28.894531-21.984375-35.511719l18.785156-14.089843c2.015625-1.503907 3.199219-3.878907 3.199219-6.398438v-44.6875l8.96875-8.96875c4.535156-4.527344 7.03125-10.558594 7.03125-16.96875v-6.832031c0-9.605469-5.710938-18.261719-14.542969-22.054688l-66.082031-28.320312c-25.039062-10.726563-51.542969-16.167969-78.78125-16.167969h-1.179688c-27.238281 0-53.742187 5.441406-78.78125 16.167969l-66.082031 28.320312c-8.839843 3.792969-14.550781 12.449219-14.550781 22.054688v6.832031c0 6.410156 2.496094 12.441406 7.03125 16.96875l8.96875 8.96875v44.6875c0 2.511719 1.183594 4.886719 3.199219 6.398438l18.785156 14.089843c-12.984375 6.617188-21.984375 19.96875-21.984375 35.511719 0 20.902344 16.167969 37.910156 36.632812 39.65625 6.183594 20.929688 18.320313 39.289062 34.457032 53.175781l-55.554688 17.089844c-23.648437 7.277344-39.535156 28.796875-39.535156 53.535156v124.542969c0 4.425781 3.585938 8 8 8h320c4.414062 0 8-3.574219 8-8v-124.542969c0-24.738281-15.886719-46.257812-39.527344-53.535156zm-3.382812 15.820313-9.714844 24.28125-17.648438-5.878907 5.074219-25.375 20.960938 6.445313c.460937.144531.871093.371094 1.328125.527344zm-41.28125 89.761718 20.871094-20.871094c1.703124-1.703124 3.953124-2.632812 6.351562-2.632812 4.945312 0 8.96875 4.023438 8.96875 8.96875 0 2.359375-.960938 4.671875-2.625 6.34375l-20.789062 20.792969c-3.945313-4.519531-8.25-8.679688-12.777344-12.601563zm23.550781 64.496094h-16.886719c-13.433594-37.960938-49.761718-64-90.472656-64s-77.039062 26.039062-90.472656 64h-16.886719c13.960937-46.894531 57.625-80 107.359375-80s93.398438 33.105469 107.359375 80zm-34.085937 0h-146.546876c12.570313-28.703125 41.289063-48 73.273438-48s60.703125 19.296875 73.273438 48zm-169.859376-51.894531-20.789062-20.792969c-1.664062-1.671875-2.625-3.984375-2.625-6.34375 0-4.945312 4.023438-8.96875 8.96875-8.96875 2.398438 0 4.648438.929688 6.34375 2.625l20.871094 20.871094c-4.519532 3.929687-8.824219 8.089844-12.769532 12.609375zm96.585938-44.105469c-2.6875 0-5.34375.183594-8 .351562v-26.222656l8-4.800781 8 4.800781v26.222656c-2.65625-.167968-5.3125-.351562-8-.351562zm-82.433594-44.953125-5-25 19.058594-5.863281 7.855469 23.558594zm30.59375-31.855469c2.34375 1.234375 4.734375 2.394532 7.175782 3.464844l31.761718 31.757812-22.664062 13.601563zm51.839844 25.496094-13.601562-13.597656c4.472656.542968 8.992187.910156 13.601562.910156s9.128906-.367188 13.601562-.910156zm12.902344 9.71875 31.761718-31.757812c2.441407-1.0625 4.824219-2.234376 7.175782-3.464844l-16.273438 48.816406zm55.472656-34.230469 19.058594 5.863281-5 25-21.914063-7.304687zm42.519531-85.304687c.648438-4.878906 1.105469-9.816406 1.105469-14.871094v-30.527344c9.289062 3.3125 16 12.113282 16 22.527344 0 10.824219-7.238281 19.886719-17.105469 22.871094zm-254.894531-156.328125c0-3.199219 1.902344-6.085938 4.847656-7.351563l66.082032-28.320312c23.03125-9.863282 47.414062-14.871094 72.476562-14.871094h1.179688c25.0625 0 49.445312 5.007812 72.476562 14.871094l66.082031 28.320312c2.953125 1.273438 4.855469 4.152344 4.855469 7.351563v6.832031c0 2.105469-.855469 4.167969-2.34375 5.65625l-8.96875 8.96875h-265.375l-8.96875-8.96875c-1.488281-1.496094-2.34375-3.550781-2.34375-5.65625zm16 37.457031h256v36l-16 12v-24c0-4.425781-3.585938-8-8-8h-208c-4.414062 0-8 3.574219-8 8v24l-16-12zm211.335938 32c-26.488282 10.574219-54.390626 16-83.710938 16-28.609375 0-56.472656-5.425781-82.953125-16zm-211.335938 64c0-10.414062 6.710938-19.214844 16-22.527344v30.527344c0 5.054688.457031 9.992188 1.105469 14.871094-9.859375-2.984375-17.105469-12.046875-17.105469-22.871094zm32 8v-59.871094l1.078125.464844c30.050781 12.878906 61.859375 19.40625 95.296875 19.40625 32.679688 0 64.496094-6.527344 94.546875-19.40625l1.078125-.464844v59.871094c0 52.9375-43.0625 96-96 96s-96-43.0625-96-96zm-6.800781 110.769531 5.074219 25.375-17.648438 5.878907-9.714844-24.28125c.449219-.15625.867188-.382813 1.320313-.527344zm-49.199219 44.6875c0-11.554687 4.910156-22.058593 12.984375-29.441406l11.582031 28.960937c1.25 3.113282 4.25 5.023438 7.433594 5.023438.839844 0 1.6875-.136719 2.527344-.414062l62.007812-20.675782 7.871094 23.617188c.769531 2.296875 2.539062 4.136718 4.816406 4.96875.90625.335937 1.839844.503906 2.777344.503906 1.433594 0 2.855469-.382812 4.121094-1.144531l11.878906-7.128907v18.617188c-17.015625 3.273438-32.960938 9.929688-47.015625 19.328125l-22.359375-22.359375c-4.714844-4.71875-10.984375-7.3125-17.65625-7.3125-13.769531 0-24.96875 11.199219-24.96875 24.96875 0 6.574219 2.664062 13.007812 7.3125 17.65625l22.359375 22.359375c-7.871094 11.726563-13.855469 24.847656-17.511719 39.015625h-28.160156zm304 116.542969h-28.160156c-3.65625-14.167969-9.632813-27.289062-17.511719-39.015625l22.359375-22.359375c4.648438-4.648438 7.3125-11.082031 7.3125-17.65625 0-13.769531-11.199219-24.96875-24.96875-24.96875-6.671875 0-12.941406 2.59375-17.65625 7.3125l-22.359375 22.359375c-14.054687-9.398437-30-16.054687-47.015625-19.328125v-18.617188l11.878906 7.128907c1.265625.761719 2.6875 1.144531 4.121094 1.144531.9375 0 1.871094-.167969 2.777344-.496094 2.269531-.832031 4.039062-2.671875 4.816406-4.96875l7.871094-23.613281 62.007812 20.671875c.839844.269531 1.6875.40625 2.527344.40625 3.183594 0 6.183594-1.910156 7.433594-5.03125l11.582031-28.960938c8.082031 7.382813 12.984375 17.886719 12.984375 29.441407zm0 0" data-original="#000000" class="active-path" data-old_color="#000000" fill="#1089FF"/><path d="m168 288c30.878906 0 56-25.128906 56-56h-16c0 22.054688-17.945312 40-40 40s-40-17.945312-40-40h-16c0 30.871094 25.121094 56 56 56zm0 0" data-original="#000000" class="active-path" data-old_color="#000000" fill="#1089FF"/><path d="m205.65625 69.65625-11.3125-11.3125-4.6875 4.6875c-3.808594 3.808594-8.59375 6.242188-13.65625 7.535156v-22.566406h16v-16h-48v16h16v22.566406c-5.0625-1.292968-9.847656-3.726562-13.65625-7.535156l-4.6875-4.6875-11.3125 11.3125 4.6875 4.6875c8.800781 8.808594 20.511719 13.65625 32.96875 13.65625s24.167969-4.847656 32.96875-13.65625zm0 0" data-original="#000000" class="active-path" data-old_color="#000000" fill="#1089FF"/></g> </svg>
