<?xml version="1.0"?>
<svg xmlns="http://www.w3.org/2000/svg" id="outline" viewBox="0 0 512 512" width="512px" height="512px"><g><path d="M494.05018,272.35156A15.96691,15.96691,0,0,0,480.00331,264H438.70643v-3.71875a15.9646,15.9646,0,0,0-7.125-13.3125L413.15956,234.6875a15.953,15.953,0,0,0-8.875-2.6875H358.70643V213.77393a15.94731,15.94731,0,0,0,8-13.77393V188.28125a15.9646,15.9646,0,0,0-7.125-13.3125L341.15956,162.6875a15.953,15.953,0,0,0-8.875-2.6875H302.70643V144h4.6875a16.09842,16.09842,0,0,0,11.3125-4.6875L330.01893,128a15.89068,15.89068,0,0,0,4.6875-11.3125V112a16.01833,16.01833,0,0,0-16-16H120a16.01833,16.01833,0,0,0-16,16v4.6875A15.89068,15.89068,0,0,0,108.6875,128l9.92432,9.92432L106.58105,168H96a16.01833,16.01833,0,0,0-16,16v4.6875A15.89068,15.89068,0,0,0,84.6875,200l9.92432,9.92432L82.58105,240H48a16.01833,16.01833,0,0,0-16,16v4.6875A15.89068,15.89068,0,0,0,36.6875,272l13.65625,13.65625A7.9942,7.9942,0,0,0,56,288h5.75439L57.75,304H32a16.01833,16.01833,0,0,0-16,16v53.332a16.08946,16.08946,0,0,0,3.20312,9.60156l20,26.66407A16.066,16.066,0,0,0,52,416H402.35487a15.96584,15.96584,0,0,0,13.4375-7.30469l77.64062-120A15.9938,15.9938,0,0,0,494.05018,272.35156ZM318.70643,232V216h24v16Zm-132.6875,8-11.3125-11.3125V216h32v23.05469L204.81581,240Zm36.6875-24h32v16h-32Zm48,0h32v16h-32Zm16-56h-32V144h32Zm-60.6875,8-11.3125-11.3125V144h24v23.05469L236.81581,168ZM120,112H318.70643v4.6875L307.39393,128H131.3125L120,116.6875Zm13.41406,32h65.29237v12.6875A15.89068,15.89068,0,0,0,203.39393,168H123.81738ZM96,184H238.70643a8.00536,8.00536,0,0,0,3.57813-.84375L256.59706,176h75.6875l18.42187,12.28125V200H107.3125L96,188.6875ZM109.419,216h49.28748v12.6875A15.89068,15.89068,0,0,0,163.39393,240H99.81885ZM48,260.6875V256H206.70643a8.00536,8.00536,0,0,0,3.57813-.84375L224.59706,248h179.6875l18.42187,12.28125V264H314.55018a15.91455,15.91455,0,0,0-12.49219,6.00391L300.46424,272H59.3125ZM174.70643,288v16h-32V288Zm16,0h32v16h-32Zm48,0h48.96094l-12.80469,16H238.70643ZM88,288h38.70643v16H74.25l4-16ZM402.35487,400H52L32,373.332V320H274.86268a15.91453,15.91453,0,0,0,12.49219-6.00391L314.55018,280H479.99549Z" data-original="#000000" class="active-path" data-old_color="#000000" fill="#1089FF"/><rect x="326.70643" y="296" width="16" height="16" data-original="#000000" class="active-path" data-old_color="#000000" fill="#1089FF"/><rect x="358.70643" y="296" width="16" height="16" data-original="#000000" class="active-path" data-old_color="#000000" fill="#1089FF"/><rect x="390.70643" y="296" width="16" height="16" data-original="#000000" class="active-path" data-old_color="#000000" fill="#1089FF"/></g> </svg>
